<?xml version="1.0" encoding="utf-8"?>
<!-- Generator: Adobe Illustrator 19.2.1, SVG Export Plug-In . SVG Version: 6.00 Build 0)  -->
<svg version="1.1" id="layer" xmlns="http://www.w3.org/2000/svg" xmlns:xlink="http://www.w3.org/1999/xlink" x="0px" y="0px"
	 viewBox="0 0 652 652" style="enable-background:new 0 0 652 652;" xml:space="preserve">
<style type="text/css">
	.st0{fill:#231F20;}
	.st1{fill:#FFCC67;}
	.st2{fill:#F89820;}
</style>
<g>
	<path class="st0" d="M338.4,341.5c0,3.2,2.3,3.3,3.3,3.3c1.4,0,3.7-0.1,4.9-0.3v10.7c-2.9,0.6-5.6,1.3-10.7,1.3
		c-9.8,0-10.9-5.3-11.3-7.5c-2.9,2.9-10.2,8.1-27.1,8.1c-15,0-23.5-6.9-23.5-18.4c0-16.1,16.3-17.6,25.9-18.5
		c21.6-2.1,23.9-2.9,23.9-7.4c0-6.7-7.6-8.4-16.3-8.4c-9.9,0-15.2,3.2-15.8,9.7h-14.7c2.2-15.4,13.4-20.1,30.5-20.1
		c30.2,0,31,12.1,31,19.7V341.5z M323.4,325.7c-4.4,1.9-9,2.4-19.7,3.6c-11.3,1.3-14.1,3.9-14.1,8.8c0,7.7,7,9.2,12.1,9.2
		c8.1,0,21.7-3.1,21.7-16V325.7z"/>
	<path class="st0" d="M353.1,296.3h15v11.4h0.2c4-6.6,10.2-12.9,21.8-12.9c2.3,0,4,0.2,6,0.6v15c-4.1-1.3-7-1.4-9.6-1.4
		c-7.6,0-18.4,4.1-18.4,17.7v28.3h-15V296.3z"/>
	<path class="st0" d="M416.3,329.5c0.3,6.5,4.7,16.6,19.6,16.6c9.9,0,14.3-3.5,17.2-8.4h16.3c-3.3,6.5-11.1,19.4-33.1,19.4
		c-26,0-35.7-15.4-35.7-31c0-19.6,14.3-32.1,34.7-32.1c25.6,0,35.4,16,35.4,33.2v2.2H416.3z M455,319.8
		c-1.8-11.7-12.1-15.3-19.5-15.3c-7,0-16.8,3.3-19.3,15.3H455z"/>
	<path class="st0" d="M481.1,296.3h15v8.8h0.2c4.9-6.3,12.5-10.4,22.8-10.4c12.4,0,24.5,4.5,24.5,20.3v39.8h-15V320
		c0-6.3-2.1-13.5-14.5-13.5c-7.9,0-18,4.4-18,16.9v31.5h-15V296.3z"/>
	<path class="st0" d="M617.8,341.5c0,3.2,2.3,3.3,3.3,3.3c1.4,0,3.7-0.1,4.9-0.3v10.7c-2.9,0.6-5.6,1.3-10.7,1.3
		c-9.8,0-10.9-5.3-11.3-7.5c-2.9,2.9-10.2,8.1-27.1,8.1c-15,0-23.5-6.9-23.5-18.4c0-16.1,16.3-17.6,25.9-18.5
		c21.6-2.1,23.9-2.9,23.9-7.4c0-6.7-7.6-8.4-16.4-8.4c-9.9,0-15.2,3.2-15.8,9.7h-14.7c2.2-15.4,13.4-20.1,30.5-20.1
		c30.2,0,31.1,12.1,31.1,19.7V341.5z M602.7,325.7c-4.4,1.9-9,2.4-19.7,3.6c-11.3,1.3-14.1,3.9-14.1,8.8c0,7.7,7,9.2,12.1,9.2
		c8.1,0,21.7-3.1,21.7-16V325.7z"/>
	<path class="st1" d="M107.2,325.6c0-22.4,10.6-42.4,27-54.9c-11.3-8.6-25.4-13.8-40.6-13.8C56.2,257,26,287.7,26,325.6
		c0,37.9,30.3,68.6,67.6,68.6c15.2,0,29.3-5.1,40.6-13.8C117.8,368,107.2,348.1,107.2,325.6"/>
	<path class="st2" d="M174.8,257c-15.3,0-29.3,5.1-40.6,13.8c16.4,12.5,27,32.4,27,54.9c0,22.4-10.6,42.4-27,54.9
		c11.3,8.6,25.4,13.8,40.6,13.8c37.4,0,67.7-30.7,67.7-68.6C242.5,287.7,212.2,257,174.8,257"/>
</g>
</svg>